<?xml version="1.0" encoding="UTF-8"?>
<svg xmlns="http://www.w3.org/2000/svg" viewBox="0 0 512 512" width="100%" height="100%">
  <defs>
    <!-- Ambient Drop Shadow -->
    <filter id="shadow" x="-20%" y="-20%" width="140%" height="140%">
      <feDropShadow dx="0" dy="18" stdDeviation="20" flood-color="#000000" flood-opacity="0.45"/>
    </filter>
    <filter id="folder-shadow" x="-20%" y="-20%" width="140%" height="140%">
      <feDropShadow dx="0" dy="14" stdDeviation="16" flood-color="#000000" flood-opacity="0.40"/>
    </filter>
    <filter id="pocket-shadow" x="-15%" y="-15%" width="130%" height="130%">
      <feDropShadow dx="0" dy="8" stdDeviation="10" flood-color="#000000" flood-opacity="0.32"/>
    </filter>
    <filter id="glyph-shadow" x="-25%" y="-25%" width="150%" height="150%">
      <feDropShadow dx="0" dy="8" stdDeviation="10" flood-color="#000000" flood-opacity="0.36"/>
    </filter>
    <filter id="glow" x="-30%" y="-30%" width="160%" height="160%">
      <feGaussianBlur stdDeviation="12" result="blur"/>
      <feComposite in="SourceGraphic" in2="blur" operator="over"/>
    </filter>

    <!-- Glass Specular Rim Highlight -->
    <linearGradient id="specular-rim" x1="0" y1="0" x2="0" y2="1">
      <stop offset="0%" stop-color="#ffffff" stop-opacity="0.50"/>
      <stop offset="25%" stop-color="#ffffff" stop-opacity="0.18"/>
      <stop offset="70%" stop-color="#ffffff" stop-opacity="0.04"/>
      <stop offset="100%" stop-color="#ffffff" stop-opacity="0.12"/>
    </linearGradient>

    <!-- Top Gloss Sheen Overlay -->
    <linearGradient id="top-gloss" x1="0" y1="0" x2="0" y2="1">
      <stop offset="0%" stop-color="#ffffff" stop-opacity="0.32"/>
      <stop offset="40%" stop-color="#ffffff" stop-opacity="0.06"/>
      <stop offset="100%" stop-color="#ffffff" stop-opacity="0.0"/>
    </linearGradient>
    
    <linearGradient id="bg-git" x1="0" y1="0" x2="1" y2="1">
      <stop offset="0%" stop-color="#9a3412"/>
      <stop offset="50%" stop-color="#ea580c"/>
      <stop offset="100%" stop-color="#f97316"/>
    </linearGradient>
    
  </defs>
  
  <!-- Base Squircle with Shadow -->
  <rect x="36" y="36" width="440" height="440" rx="104" ry="104" fill="url(#bg-git)" filter="url(#shadow)"/>

  <!-- Top Glass Sheen -->
  <path d="M 36 140 C 36 82, 82 36, 140 36 L 372 36 C 430 36, 476 82, 476 140 L 476 210 C 360 240, 150 240, 36 210 Z" fill="url(#top-gloss)"/>

  <!-- Center Hero Artwork -->
  <g filter="url(#glyph-shadow)">
    
    <!-- Git Branch Nodes -->
    <g transform="translate(256, 256) rotate(45) translate(-256, -256)">
      <rect x="146" y="146" width="220" height="220" rx="36" fill="#ffffff"/>
      <circle cx="216" cy="216" r="22" fill="#ea580c"/>
      <circle cx="216" cy="296" r="22" fill="#ea580c"/>
      <circle cx="296" cy="216" r="22" fill="#ea580c"/>
      <line x1="216" y1="216" x2="216" y2="296" stroke="#ea580c" stroke-width="14"/>
      <path d="M 216 296 C 216 256, 296 256, 296 216" fill="none" stroke="#ea580c" stroke-width="14"/>
    </g>
    
  </g>

  <!-- Specular Rim Border -->
  <rect x="36" y="36" width="440" height="440" rx="104" ry="104" fill="none" stroke="url(#specular-rim)" stroke-width="2.5"/>

</svg>