<?xml version="1.0" encoding="UTF-8"?>
<svg xmlns="http://www.w3.org/2000/svg" viewBox="0 0 512 512" width="100%" height="100%">
  <defs>
    <!-- Ambient Drop Shadow -->
    <filter id="shadow" x="-20%" y="-20%" width="140%" height="140%">
      <feDropShadow dx="0" dy="18" stdDeviation="20" flood-color="#000000" flood-opacity="0.45"/>
    </filter>
    <filter id="folder-shadow" x="-20%" y="-20%" width="140%" height="140%">
      <feDropShadow dx="0" dy="14" stdDeviation="16" flood-color="#000000" flood-opacity="0.40"/>
    </filter>
    <filter id="pocket-shadow" x="-15%" y="-15%" width="130%" height="130%">
      <feDropShadow dx="0" dy="8" stdDeviation="10" flood-color="#000000" flood-opacity="0.32"/>
    </filter>
    <filter id="glyph-shadow" x="-25%" y="-25%" width="150%" height="150%">
      <feDropShadow dx="0" dy="8" stdDeviation="10" flood-color="#000000" flood-opacity="0.36"/>
    </filter>
    <filter id="glow" x="-30%" y="-30%" width="160%" height="160%">
      <feGaussianBlur stdDeviation="12" result="blur"/>
      <feComposite in="SourceGraphic" in2="blur" operator="over"/>
    </filter>

    <!-- Glass Specular Rim Highlight -->
    <linearGradient id="specular-rim" x1="0" y1="0" x2="0" y2="1">
      <stop offset="0%" stop-color="#ffffff" stop-opacity="0.50"/>
      <stop offset="25%" stop-color="#ffffff" stop-opacity="0.18"/>
      <stop offset="70%" stop-color="#ffffff" stop-opacity="0.04"/>
      <stop offset="100%" stop-color="#ffffff" stop-opacity="0.12"/>
    </linearGradient>

    <!-- Top Gloss Sheen Overlay -->
    <linearGradient id="top-gloss" x1="0" y1="0" x2="0" y2="1">
      <stop offset="0%" stop-color="#ffffff" stop-opacity="0.32"/>
      <stop offset="40%" stop-color="#ffffff" stop-opacity="0.06"/>
      <stop offset="100%" stop-color="#ffffff" stop-opacity="0.0"/>
    </linearGradient>
    
        <linearGradient id="bg-act" x1="0" y1="0" x2="0" y2="1">
          <stop offset="0%" stop-color="#334155"/>
          <stop offset="100%" stop-color="#1e293b"/>
        </linearGradient>
        
  </defs>
  
        <circle cx="256" cy="256" r="210" fill="url(#bg-act)" filter="url(#shadow)"/>
        <circle cx="256" cy="256" r="210" fill="none" stroke="url(#specular-rim)" stroke-width="4"/>
        <g filter="url(#glyph-shadow)">
          
    <path d="M 160 256 C 160 200, 204 156, 256 156 C 308 156, 348 190, 352 230" fill="none" stroke="#ffffff" stroke-width="24" stroke-linecap="round"/>
    <polygon points="352,180 376,234 322,234" fill="#ffffff"/>
    <path d="M 352 256 C 352 312, 308 356, 256 356 C 204 356, 164 322, 160 282" fill="none" stroke="#ffffff" stroke-width="24" stroke-linecap="round"/>
    <polygon points="160,332 136,278 190,278" fill="#ffffff"/>
    
        </g>
        
</svg>