<?xml version="1.0" encoding="UTF-8"?>
<svg xmlns="http://www.w3.org/2000/svg" viewBox="0 0 512 512" width="100%" height="100%">
  <defs>
    <!-- Ambient Drop Shadow -->
    <filter id="shadow" x="-20%" y="-20%" width="140%" height="140%">
      <feDropShadow dx="0" dy="18" stdDeviation="20" flood-color="#000000" flood-opacity="0.45"/>
    </filter>
    <filter id="folder-shadow" x="-20%" y="-20%" width="140%" height="140%">
      <feDropShadow dx="0" dy="14" stdDeviation="16" flood-color="#000000" flood-opacity="0.40"/>
    </filter>
    <filter id="pocket-shadow" x="-15%" y="-15%" width="130%" height="130%">
      <feDropShadow dx="0" dy="8" stdDeviation="10" flood-color="#000000" flood-opacity="0.32"/>
    </filter>
    <filter id="glyph-shadow" x="-25%" y="-25%" width="150%" height="150%">
      <feDropShadow dx="0" dy="8" stdDeviation="10" flood-color="#000000" flood-opacity="0.36"/>
    </filter>
    <filter id="glow" x="-30%" y="-30%" width="160%" height="160%">
      <feGaussianBlur stdDeviation="12" result="blur"/>
      <feComposite in="SourceGraphic" in2="blur" operator="over"/>
    </filter>

    <!-- Glass Specular Rim Highlight -->
    <linearGradient id="specular-rim" x1="0" y1="0" x2="0" y2="1">
      <stop offset="0%" stop-color="#ffffff" stop-opacity="0.50"/>
      <stop offset="25%" stop-color="#ffffff" stop-opacity="0.18"/>
      <stop offset="70%" stop-color="#ffffff" stop-opacity="0.04"/>
      <stop offset="100%" stop-color="#ffffff" stop-opacity="0.12"/>
    </linearGradient>

    <!-- Top Gloss Sheen Overlay -->
    <linearGradient id="top-gloss" x1="0" y1="0" x2="0" y2="1">
      <stop offset="0%" stop-color="#ffffff" stop-opacity="0.32"/>
      <stop offset="40%" stop-color="#ffffff" stop-opacity="0.06"/>
      <stop offset="100%" stop-color="#ffffff" stop-opacity="0.0"/>
    </linearGradient>
    
    <linearGradient id="bg-trash" x1="0" y1="0" x2="0" y2="1">
      <stop offset="0%" stop-color="#334155"/>
      <stop offset="50%" stop-color="#1e293b"/>
      <stop offset="100%" stop-color="#0f172a"/>
    </linearGradient>
    <linearGradient id="can-mesh" x1="0" y1="0" x2="1" y2="1">
      <stop offset="0%" stop-color="#f1f5f9" stop-opacity="0.8"/>
      <stop offset="100%" stop-color="#94a3b8" stop-opacity="0.4"/>
    </linearGradient>
    
  </defs>
  
  <!-- Base Squircle with Shadow -->
  <rect x="36" y="36" width="440" height="440" rx="104" ry="104" fill="url(#bg-trash)" filter="url(#shadow)"/>
  <path d="M 36 140 C 36 82, 82 36, 140 36 L 372 36 C 430 36, 476 82, 476 140 L 476 210 C 360 240, 150 240, 36 210 Z" fill="url(#top-gloss)"/>
  <g filter="url(#glyph-shadow)">
    <!-- Trash Can Lid Top Rim -->
    <ellipse cx="256" cy="140" rx="120" ry="24" fill="none" stroke="#e2e8f0" stroke-width="12"/>
    <ellipse cx="256" cy="140" rx="40" ry="10" fill="none" stroke="#e2e8f0" stroke-width="8"/>

    <!-- Slanted Can Body -->
    <polygon points="146,140 366,140 336,400 176,400" fill="url(#can-mesh)"/>
    <line x1="176" y1="400" x2="336" y2="400" stroke="#e2e8f0" stroke-width="12" stroke-linecap="round"/>

    <!-- Vertical Slats -->
    <line x1="200" y1="150" x2="208" y2="390" stroke="#0f172a" stroke-width="6" opacity="0.3"/>
    <line x1="236" y1="152" x2="238" y2="390" stroke="#0f172a" stroke-width="6" opacity="0.3"/>
    <line x1="276" y1="152" x2="274" y2="390" stroke="#0f172a" stroke-width="6" opacity="0.3"/>
    <line x1="312" y1="150" x2="304" y2="390" stroke="#0f172a" stroke-width="6" opacity="0.3"/>
  </g>
  <rect x="36" y="36" width="440" height="440" rx="104" ry="104" fill="none" stroke="url(#specular-rim)" stroke-width="2.5"/>
    
</svg>